<?xml version="1.0" encoding="UTF-8"?>
<!DOCTYPE svg PUBLIC "-//W3C//DTD SVG 1.0//EN" "http://www.w3.org/TR/2001/REC-SVG-20010904/DTD/svg10.dtd">
<!-- Creator: CorelDRAW X8 -->
<svg xmlns="http://www.w3.org/2000/svg" xml:space="preserve" width="10.1783mm" height="9.4627mm" version="1.0" style="shape-rendering:geometricPrecision; text-rendering:geometricPrecision; image-rendering:optimizeQuality; fill-rule:evenodd; clip-rule:evenodd"
viewBox="0 0 106 98"
 xmlns:xlink="http://www.w3.org/1999/xlink">
 <defs>
  <style type="text/css">
   <![CDATA[
    .str0 {stroke:red;stroke-width:5.18635;stroke-linecap:round;stroke-linejoin:round}
    .fil0 {fill:none}
   ]]>
  </style>
 </defs>
 <g id="Capa_x0020_1">
  <metadata id="CorelCorpID_0Corel-Layer"/>
  <g id="_1945586993440">
   <rect class="fil0 str0" x="53" y="47" width="49.6378" height="48.8845"/>
   <path class="fil0 str0" d="M16 20l17 0 0 33 13 43 -22 -25 -21 25 13 -43 0 -33z"/>
   <path class="fil0 str0" d="M16 20l8 -17 9 17"/>
   <path class="fil0 str0" d="M3 40l0 -5 43 0 0 5"/>
   <path class="fil0 str0" d="M8 24l0 -4 32 0 0 4"/>
   <path class="fil0 str0" d="M16 53l17 0"/>
   <path class="fil0 str0" d="M30 10l72 0"/>
   <path class="fil0 str0" d="M59 12l0 34"/>
   <path class="fil0 str0" d="M78 12l0 34"/>
   <path class="fil0 str0" d="M97 12l0 34"/>
   <path class="fil0 str0" d="M54 23l10 0"/>
   <path class="fil0 str0" d="M74 23l9 0"/>
   <path class="fil0 str0" d="M93 23l9 0"/>
   <path class="fil0 str0" d="M54 31l10 0"/>
   <path class="fil0 str0" d="M74 31l9 0"/>
   <path class="fil0 str0" d="M93 31l9 0"/>
   <path class="fil0 str0" d="M82 58l-10 13 13 0 -10 14"/>
  </g>
 </g>
</svg>
