<?xml version="1.0" encoding="UTF-8"?>
<!DOCTYPE svg PUBLIC "-//W3C//DTD SVG 1.1//EN" "http://www.w3.org/Graphics/SVG/1.1/DTD/svg11.dtd">
<!-- Creator: CorelDRAW X8 -->
<svg xmlns="http://www.w3.org/2000/svg" xml:space="preserve" width="75mm" height="75.1232mm" version="1.1" style="shape-rendering:geometricPrecision; text-rendering:geometricPrecision; image-rendering:optimizeQuality; fill-rule:evenodd; clip-rule:evenodd"
viewBox="0 0 125 125"
 xmlns:xlink="http://www.w3.org/1999/xlink">
 <defs>
  <style type="text/css">
   <![CDATA[
    .str1 {stroke:red;stroke-width:3.32783}
    .str0 {stroke:red;stroke-width:3.32783;stroke-linecap:square}
    .fil0 {fill:none}
    .fil1 {fill:red;fill-rule:nonzero}
   ]]>
  </style>
 </defs>
 <g id="Capa_x0020_1">
  <metadata id="CorelCorpID_0Corel-Layer"/>
  <polyline class="fil0 str0" points="62,73 62,95 35,123 "/>
  <circle class="fil0 str1" cx="62" cy="38" r="35"/>
  <path class="fil1" d="M64 42l0 -5 17 0 0 15c-3,2 -5,4 -8,5 -3,1 -6,2 -9,2 -4,0 -7,-1 -11,-3 -3,-2 -5,-4 -7,-7 -2,-3 -2,-7 -2,-11 0,-4 0,-8 2,-11 2,-4 4,-6 7,-8 3,-1 7,-2 11,-2 3,0 5,0 8,1 2,1 4,2 5,4 2,2 3,4 3,7l-4 1c-1,-2 -2,-4 -3,-5 -1,-1 -2,-2 -4,-3 -1,0 -3,-1 -5,-1 -3,0 -5,1 -7,2 -1,0 -3,1 -4,2 -1,2 -2,3 -2,4 -1,3 -2,6 -2,9 0,3 1,6 2,9 1,2 3,4 5,5 3,1 5,2 8,2 2,0 4,-1 7,-1 2,-1 4,-2 5,-3l0 -8 -12 0z"/>
  <rect class="fil0" width="125" height="125"/>
 </g>
</svg>
